<svg id="visual" viewBox="0 0 2500 1900" width="2500" height="1900" xmlns="http://www.w3.org/2000/svg" xmlns:xlink="http://www.w3.org/1999/xlink" version="1.1"><rect x="0" y="0" width="2500" height="1900" fill="#A21D56"></rect><path d="M0 1416L59.5 1426C119 1436 238 1456 357 1441.2C476 1426.3 595 1376.7 714 1335.3C833 1294 952 1261 1071.2 1268.3C1190.3 1275.7 1309.7 1323.3 1428.8 1335.5C1548 1347.7 1667 1324.3 1786 1289.8C1905 1255.3 2024 1209.7 2143 1182.8C2262 1156 2381 1148 2440.5 1144L2500 1140L2500 1901L2440.5 1901C2381 1901 2262 1901 2143 1901C2024 1901 1905 1901 1786 1901C1667 1901 1548 1901 1428.8 1901C1309.7 1901 1190.3 1901 1071.2 1901C952 1901 833 1901 714 1901C595 1901 476 1901 357 1901C238 1901 119 1901 59.5 1901L0 1901Z" fill="#fec879"></path><path d="M0 1660L59.5 1649.2C119 1638.3 238 1616.7 357 1585.8C476 1555 595 1515 714 1483.5C833 1452 952 1429 1071.2 1447.5C1190.3 1466 1309.7 1526 1428.8 1519.8C1548 1513.7 1667 1441.3 1786 1411.5C1905 1381.7 2024 1394.3 2143 1396.5C2262 1398.7 2381 1390.3 2440.5 1386.2L2500 1382L2500 1901L2440.5 1901C2381 1901 2262 1901 2143 1901C2024 1901 1905 1901 1786 1901C1667 1901 1548 1901 1428.8 1901C1309.7 1901 1190.3 1901 1071.2 1901C952 1901 833 1901 714 1901C595 1901 476 1901 357 1901C238 1901 119 1901 59.5 1901L0 1901Z" fill="#fbae3c"></path><path d="M0 1546L59.5 1578C119 1610 238 1674 357 1702.2C476 1730.3 595 1722.7 714 1686.2C833 1649.7 952 1584.3 1071.2 1578.8C1190.3 1573.3 1309.7 1627.7 1428.8 1633.7C1548 1639.7 1667 1597.3 1786 1572C1905 1546.7 2024 1538.3 2143 1549.5C2262 1560.7 2381 1591.3 2440.5 1606.7L2500 1622L2500 1901L2440.5 1901C2381 1901 2262 1901 2143 1901C2024 1901 1905 1901 1786 1901C1667 1901 1548 1901 1428.8 1901C1309.7 1901 1190.3 1901 1071.2 1901C952 1901 833 1901 714 1901C595 1901 476 1901 357 1901C238 1901 119 1901 59.5 1901L0 1901Z" fill="#bd8028"></path></svg>